<?xml version="1.0" encoding="UTF-8"?>
<svg id="_图层_2" data-name="图层 2" xmlns="http://www.w3.org/2000/svg" viewBox="0 0 80 80">
  <defs>
    <style>
      .cls-1 {
        fill: #fff;
      }

      .cls-2 {
        fill: none;
        stroke: #000;
        stroke-miterlimit: 10;
        stroke-width: .5px;
      }
    </style>
  </defs>
  <g id="_图层_1-2" data-name="图层 1">
    <g>
      <rect class="cls-1" x=".25" y=".25" width="79.5" height="79.5" rx="19.75" ry="19.75"/>
      <path d="m60,.5c10.75,0,19.5,8.75,19.5,19.5v40c0,10.75-8.75,19.5-19.5,19.5H20c-10.75,0-19.5-8.75-19.5-19.5V20C.5,9.25,9.25.5,20,.5h40m0-.5H20C9,0,0,9,0,20v40c0,11,9,20,20,20h40c11,0,20-9,20-20V20c0-11-9-20-20-20h0Z"/>
    </g>
    <circle class="cls-2" cx="40.5" cy="39" r="18"/>
    <circle class="cls-2" cx="63.5" cy="16" r="4"/>
  </g>
</svg>