<?xml version="1.0" encoding="UTF-8"?><svg id="_图层_2" xmlns="http://www.w3.org/2000/svg" viewBox="0 0 80 80"><defs><style>.cls-1{fill:#fff;}.cls-2{fill:none;stroke:#000;stroke-miterlimit:10;}</style></defs><g id="_图层_1-2"><g><rect class="cls-1" x=".5" y=".5" width="79" height="79" rx="19.5" ry="19.5"/><path d="m60,1c10.48,0,19,8.52,19,19v40c0,10.48-8.52,19-19,19H20c-10.48,0-19-8.52-19-19V20C1,9.52,9.52,1,20,1h40m0-1H20C9,0,0,9,0,20v40c0,11,9,20,20,20h40c11,0,20-9,20-20V20c0-11-9-20-20-20h0Z"/></g><circle class="cls-2" cx="40.5" cy="39" r="18"/><circle class="cls-2" cx="63.5" cy="16" r="4"/></g></svg>